<?xml version="1.0" standalone="no"?>
<svg xmlns:xlink="http://www.w3.org/1999/xlink" id="wave" style="transform:rotate(0deg); transition: 0.3s" viewBox="0 0 1440 160" version="1.1" xmlns="http://www.w3.org/2000/svg"><defs><linearGradient id="sw-gradient-0" x1="0" x2="0" y1="1" y2="0"><stop stop-color="rgba(26, 26, 26, 1)" offset="0%"/><stop stop-color="rgba(26, 26, 26, 0.78)" offset="100%"/></linearGradient></defs><path style="transform:translate(0, 0px); opacity:1" fill="url(#sw-gradient-0)" d="M0,128L60,109.3C120,91,240,53,360,37.3C480,21,600,27,720,40C840,53,960,75,1080,88C1200,101,1320,107,1440,98.7C1560,91,1680,69,1800,56C1920,43,2040,37,2160,45.3C2280,53,2400,75,2520,88C2640,101,2760,107,2880,96C3000,85,3120,59,3240,61.3C3360,64,3480,96,3600,106.7C3720,117,3840,107,3960,106.7C4080,107,4200,117,4320,112C4440,107,4560,85,4680,77.3C4800,69,4920,75,5040,82.7C5160,91,5280,101,5400,101.3C5520,101,5640,91,5760,74.7C5880,59,6000,37,6120,24C6240,11,6360,5,6480,18.7C6600,32,6720,64,6840,82.7C6960,101,7080,107,7200,106.7C7320,107,7440,101,7560,98.7C7680,96,7800,96,7920,104C8040,112,8160,128,8280,120C8400,112,8520,80,8580,64L8640,48L8640,160L8580,160C8520,160,8400,160,8280,160C8160,160,8040,160,7920,160C7800,160,7680,160,7560,160C7440,160,7320,160,7200,160C7080,160,6960,160,6840,160C6720,160,6600,160,6480,160C6360,160,6240,160,6120,160C6000,160,5880,160,5760,160C5640,160,5520,160,5400,160C5280,160,5160,160,5040,160C4920,160,4800,160,4680,160C4560,160,4440,160,4320,160C4200,160,4080,160,3960,160C3840,160,3720,160,3600,160C3480,160,3360,160,3240,160C3120,160,3000,160,2880,160C2760,160,2640,160,2520,160C2400,160,2280,160,2160,160C2040,160,1920,160,1800,160C1680,160,1560,160,1440,160C1320,160,1200,160,1080,160C960,160,840,160,720,160C600,160,480,160,360,160C240,160,120,160,60,160L0,160Z"/></svg>